<svg xmlns="http://www.w3.org/2000/svg" style="display: none;">
  <defs>
    <!-- GitHub -->
    <symbol id="icon-github" viewBox="0 0 24 24" fill="none" stroke="currentColor" stroke-width="2" stroke-linecap="round" stroke-linejoin="round">
      <path d="M9 19c-5 1.5-5-2.5-7-3m14 6v-3.87a3.37 3.37 0 0 0-.94-2.61c3.14-.35 6.44-1.54 6.44-7A5.44 5.44 0 0 0 20 4.77 5.07 5.07 0 0 0 19.91 1S18.73.65 16 2.48a13.38 13.38 0 0 0-7 0C6.27.65 5.09 1 5.09 1A5.07 5.07 0 0 0 5 4.77a5.44 5.44 0 0 0-1.5 3.78c0 5.42 3.3 6.61 6.44 7A3.37 3.37 0 0 0 9 18.13V22"></path>
    </symbol>

    <!-- LinkedIn -->
    <symbol id="icon-linkedin" viewBox="0 0 24 24" fill="none" stroke="currentColor" stroke-width="2" stroke-linecap="round" stroke-linejoin="round">
      <path d="M16 8a6 6 0 0 1 6 6v7h-4v-7a2 2 0 0 0-2-2 2 2 0 0 0-2 2v7h-4v-7a6 6 0 0 1 6-6z"></path>
      <rect x="2" y="9" width="4" height="12"></rect>
      <circle cx="4" cy="4" r="2"></circle>
    </symbol>

    <!-- Terminal -->
    <symbol id="icon-terminal" viewBox="0 0 24 24" fill="none" stroke="currentColor" stroke-width="2" stroke-linecap="round" stroke-linejoin="round">
      <polyline points="4 17 10 11 4 5"></polyline>
      <line x1="12" y1="19" x2="20" y2="19"></line>
    </symbol>

    <!-- CPU -->
    <symbol id="icon-cpu" viewBox="0 0 24 24" fill="none" stroke="currentColor" stroke-width="2" stroke-linecap="round" stroke-linejoin="round">
      <rect x="4" y="4" width="16" height="16" rx="2" ry="2"></rect>
      <rect x="9" y="9" width="6" height="6"></rect>
      <line x1="9" y1="1" x2="9" y2="4"></line>
      <line x1="15" y1="1" x2="15" y2="4"></line>
      <line x1="9" y1="20" x2="9" y2="23"></line>
      <line x1="15" y1="20" x2="15" y2="23"></line>
      <line x1="20" y1="9" x2="23" y2="9"></line>
      <line x1="20" y1="14" x2="23" y2="14"></line>
      <line x1="1" y1="9" x2="4" y2="9"></line>
      <line x1="1" y1="14" x2="4" y2="14"></line>
    </symbol>

    <!-- Database -->
    <symbol id="icon-database" viewBox="0 0 24 24" fill="none" stroke="currentColor" stroke-width="2" stroke-linecap="round" stroke-linejoin="round">
      <ellipse cx="12" cy="5" rx="9" ry="3"></ellipse>
      <path d="M21 12c0 1.66-4 3-9 3s-9-1.34-9-3"></path>
      <path d="M3 5v14c0 1.66 4 3 9 3s9-1.34 9-3V5"></path>
    </symbol>

    <!-- Cloud -->
    <symbol id="icon-cloud" viewBox="0 0 24 24" fill="none" stroke="currentColor" stroke-width="2" stroke-linecap="round" stroke-linejoin="round">
      <path d="M18 10h-1.26A8 8 0 1 0 9 20h9a5 5 0 0 0 0-10z"></path>
    </symbol>

    <!-- External Link -->
    <symbol id="icon-external-link" viewBox="0 0 24 24" fill="none" stroke="currentColor" stroke-width="2" stroke-linecap="round" stroke-linejoin="round">
      <path d="M18 13v6a2 2 0 0 1-2 2H5a2 2 0 0 1-2-2V8a2 2 0 0 1 2-2h6"></path>
      <polyline points="15 3 21 3 21 9"></polyline>
      <line x1="10" y1="14" x2="21" y2="3"></line>
    </symbol>

    <!-- Code -->
    <symbol id="icon-code" viewBox="0 0 24 24" fill="none" stroke="currentColor" stroke-width="2" stroke-linecap="round" stroke-linejoin="round">
      <polyline points="16 18 22 12 16 6"></polyline>
      <polyline points="8 6 2 12 8 18"></polyline>
    </symbol>

    <!-- Chevron Left -->
    <symbol id="icon-chevron-left" viewBox="0 0 24 24" fill="none" stroke="currentColor" stroke-width="2" stroke-linecap="round" stroke-linejoin="round">
      <polyline points="15 18 9 12 15 6"></polyline>
    </symbol>

    <!-- Chevron Right -->
    <symbol id="icon-chevron-right" viewBox="0 0 24 24" fill="none" stroke="currentColor" stroke-width="2" stroke-linecap="round" stroke-linejoin="round">
      <polyline points="9 18 15 12 9 6"></polyline>
    </symbol>

    <!-- Close / X -->
    <symbol id="icon-close" viewBox="0 0 24 24" fill="none" stroke="currentColor" stroke-width="2" stroke-linecap="round" stroke-linejoin="round">
      <line x1="18" y1="6" x2="6" y2="18"></line>
      <line x1="6" y1="6" x2="18" y2="18"></line>
    </symbol>

    <!-- Send -->
    <symbol id="icon-send" viewBox="0 0 24 24" fill="none" stroke="currentColor" stroke-width="2" stroke-linecap="round" stroke-linejoin="round">
      <line x1="22" y1="2" x2="11" y2="13"></line>
      <polygon points="22 2 15 22 11 13 2 9 22 2"></polygon>
    </symbol>

    <!-- Sparkles -->
    <symbol id="icon-sparkles" viewBox="0 0 24 24" fill="none" stroke="currentColor" stroke-width="2" stroke-linecap="round" stroke-linejoin="round">
      <path d="m12 3-1.9 5.8a2 2 0 0 1-1.3 1.3L3 12l5.8 1.9a2 2 0 0 1 1.3 1.3L12 21l1.9-5.8a2 2 0 0 1 1.3-1.3L21 12l-5.8-1.9a2 2 0 0 1-1.3-1.3Z"></path>
    </symbol>

    <!-- Check -->
    <symbol id="icon-check" viewBox="0 0 24 24" fill="none" stroke="currentColor" stroke-width="2" stroke-linecap="round" stroke-linejoin="round">
      <polyline points="20 6 9 17 4 12"></polyline>
    </symbol>

    <!-- Trash -->
    <symbol id="icon-trash" viewBox="0 0 24 24" fill="none" stroke="currentColor" stroke-width="2" stroke-linecap="round" stroke-linejoin="round">
      <polyline points="3 6 5 6 21 6"></polyline>
      <path d="M19 6v14a2 2 0 0 1-2 2H7a2 2 0 0 1-2-2V6m3 0V4a2 2 0 0 1 2-2h4a2 2 0 0 1 2 2v2"></path>
    </symbol>

    <!-- Edit -->
    <symbol id="icon-edit" viewBox="0 0 24 24" fill="none" stroke="currentColor" stroke-width="2" stroke-linecap="round" stroke-linejoin="round">
      <path d="M11 4H4a2 2 0 0 0-2 2v14a2 2 0 0 0 2 2h14a2 2 0 0 0 2-2v-7"></path>
      <path d="M18.5 2.5a2.121 2.121 0 0 1 3 3L12 15l-4 1 1-4 9.5-9.5z"></path>
    </symbol>

    <!-- Plus -->
    <symbol id="icon-plus" viewBox="0 0 24 24" fill="none" stroke="currentColor" stroke-width="2" stroke-linecap="round" stroke-linejoin="round">
      <line x1="12" y1="5" x2="12" y2="19"></line>
      <line x1="5" y1="12" x2="19" y2="12"></line>
    </symbol>

    <!-- File Text -->
    <symbol id="icon-file-text" viewBox="0 0 24 24" fill="none" stroke="currentColor" stroke-width="2" stroke-linecap="round" stroke-linejoin="round">
      <path d="M14 2H6a2 2 0 0 0-2 2v16a2 2 0 0 0 2 2h12a2 2 0 0 0 2-2V8z"></path>
      <polyline points="14 2 14 8 20 8"></polyline>
      <line x1="16" y1="13" x2="8" y2="13"></line>
      <line x1="16" y1="17" x2="8" y2="17"></line>
      <polyline points="10 9 9 9 8 9"></polyline>
    </symbol>

    <!-- Download -->
    <symbol id="icon-download" viewBox="0 0 24 24" fill="none" stroke="currentColor" stroke-width="2" stroke-linecap="round" stroke-linejoin="round">
      <path d="M21 15v4a2 2 0 0 1-2 2H5a2 2 0 0 1-2-2v-4"></path>
      <polyline points="7 10 12 15 17 10"></polyline>
      <line x1="12" y1="15" x2="12" y2="3"></line>
    </symbol>

    <!-- Briefcase -->
    <symbol id="icon-briefcase" viewBox="0 0 24 24" fill="none" stroke="currentColor" stroke-width="2" stroke-linecap="round" stroke-linejoin="round">
      <rect x="2" y="7" width="20" height="14" rx="2" ry="2"></rect>
      <path d="M16 21V5a2 2 0 0 0-2-2h-4a2 2 0 0 0-2 2v16"></path>
    </symbol>

    <!-- Award -->
    <symbol id="icon-award" viewBox="0 0 24 24" fill="none" stroke="currentColor" stroke-width="2" stroke-linecap="round" stroke-linejoin="round">
      <circle cx="12" cy="8" r="7"></circle>
      <polyline points="8.21 13.89 7 23 12 20 17 23 15.79 13.88"></polyline>
    </symbol>

    <!-- Map Pin -->
    <symbol id="icon-map-pin" viewBox="0 0 24 24" fill="none" stroke="currentColor" stroke-width="2" stroke-linecap="round" stroke-linejoin="round">
      <path d="M21 10c0 7-9 13-9 13s-9-6-9-13a9 9 0 0 1 18 0z"></path>
      <circle cx="12" cy="10" r="3"></circle>
    </symbol>

    <!-- Mail -->
    <symbol id="icon-mail" viewBox="0 0 24 24" fill="none" stroke="currentColor" stroke-width="2" stroke-linecap="round" stroke-linejoin="round">
      <path d="M4 4h16c1.1 0 2 .9 2 2v12c0 1.1-.9 2-2 2H4c-1.1 0-2-.9-2-2V6c0-1.1.9-2 2-2z"></path>
      <polyline points="22,6 12,13 2,6"></polyline>
    </symbol>

    <!-- Sun -->
    <symbol id="icon-sun" viewBox="0 0 24 24" fill="none" stroke="currentColor" stroke-width="2" stroke-linecap="round" stroke-linejoin="round">
      <circle cx="12" cy="12" r="5"></circle>
      <line x1="12" y1="1" x2="12" y2="3"></line>
      <line x1="12" y1="21" x2="12" y2="23"></line>
      <line x1="4.22" y1="4.22" x2="5.64" y2="5.64"></line>
      <line x1="18.36" y1="18.36" x2="19.78" y2="19.78"></line>
      <line x1="1" y1="12" x2="3" y2="12"></line>
      <line x1="21" y1="12" x2="23" y2="12"></line>
      <line x1="4.22" y1="19.78" x2="5.64" y2="18.36"></line>
      <line x1="18.36" y1="5.64" x2="19.78" y2="4.22"></line>
    </symbol>

    <!-- Moon -->
    <symbol id="icon-moon" viewBox="0 0 24 24" fill="none" stroke="currentColor" stroke-width="2" stroke-linecap="round" stroke-linejoin="round">
      <path d="M21 12.79A9 9 0 1 1 11.21 3 7 7 0 0 0 21 12.79z"></path>
    </symbol>

    <!-- Refresh -->
    <symbol id="icon-refresh" viewBox="0 0 24 24" fill="none" stroke="currentColor" stroke-width="2" stroke-linecap="round" stroke-linejoin="round">
      <polyline points="23 4 23 10 17 10"></polyline>
      <polyline points="1 20 1 14 7 14"></polyline>
      <path d="M3.51 9a9 9 0 0 1 14.85-3.36L23 10M1 14l4.64 4.36A9 9 0 0 0 20.49 15"></path>
    </symbol>

    <!-- Shield / Security -->
    <symbol id="icon-shield" viewBox="0 0 24 24" fill="none" stroke="currentColor" stroke-width="2" stroke-linecap="round" stroke-linejoin="round">
      <path d="M12 22s8-4 8-10V5l-8-3-8 3v7c0 6 8 10 8 10z"></path>
    </symbol>

    <!-- Graduation Cap / Education -->
    <symbol id="icon-education" viewBox="0 0 24 24" fill="none" stroke="currentColor" stroke-width="2" stroke-linecap="round" stroke-linejoin="round">
      <path d="M22 10v6M2 10l10-5 10 5-10 5z"></path>
      <path d="M6 12v5c3 3 9 3 12 0v-5"></path>
    </symbol>

    <!-- Layers -->
    <symbol id="icon-layers" viewBox="0 0 24 24" fill="none" stroke="currentColor" stroke-width="2" stroke-linecap="round" stroke-linejoin="round">
      <polygon points="12 2 2 7 12 12 22 7 12 2"></polygon>
      <polyline points="2 17 12 22 22 17"></polyline>
      <polyline points="2 12 12 17 22 12"></polyline>
    </symbol>

    <!-- Bot / MessageSquare -->
    <symbol id="icon-bot" viewBox="0 0 24 24" fill="none" stroke="currentColor" stroke-width="2" stroke-linecap="round" stroke-linejoin="round">
      <rect x="3" y="11" width="18" height="10" rx="2"></rect>
      <circle cx="12" cy="5" r="2"></circle>
      <path d="M12 7v4"></path>
      <line x1="8" y1="16" x2="8" y2="16"></line>
      <line x1="16" y1="16" x2="16" y2="16"></line>
    </symbol>

    <!-- Trophy -->
    <symbol id="icon-trophy" viewBox="0 0 24 24" fill="none" stroke="currentColor" stroke-width="2" stroke-linecap="round" stroke-linejoin="round">
      <path d="M6 9H4.5a2.5 2.5 0 0 1 0-5H6"></path>
      <path d="M18 9h1.5a2.5 2.5 0 0 0 0-5H18"></path>
      <path d="M4 22h16"></path>
      <path d="M10 14.66V17c0 .55-.45 1-1 1H7v2h10v-2h-2c-.55 0-1-.45-1-1v-2.34"></path>
      <path d="M6 4h12v7a6 6 0 0 1-12 0V4Z"></path>
    </symbol>

    <!-- Scanner / Target -->
    <symbol id="icon-target" viewBox="0 0 24 24" fill="none" stroke="currentColor" stroke-width="2" stroke-linecap="round" stroke-linejoin="round">
      <circle cx="12" cy="12" r="10"></circle>
      <circle cx="12" cy="12" r="6"></circle>
      <circle cx="12" cy="12" r="2"></circle>
    </symbol>

    <!-- LeetCode -->
    <symbol id="icon-leetcode" viewBox="0 0 24 24" fill="none" stroke="currentColor" stroke-width="2" stroke-linecap="round" stroke-linejoin="round">
      <path d="M16 3l-6 6a3 3 0 0 0 0 4.24l4.24 4.24a3 3 0 0 0 4.24 0"></path>
      <line x1="8" y1="18" x2="16" y2="18"></line>
    </symbol>

    <!-- Codeforces -->
    <symbol id="icon-codeforces" viewBox="0 0 24 24" fill="none" stroke="currentColor" stroke-width="2" stroke-linecap="round" stroke-linejoin="round">
      <rect x="2" y="10" width="5" height="11" rx="1"></rect>
      <rect x="9.5" y="4" width="5" height="17" rx="1"></rect>
      <rect x="17" y="7" width="5" height="14" rx="1"></rect>
    </symbol>

    <!-- CodeChef -->
    <symbol id="icon-codechef" viewBox="0 0 24 24" fill="none" stroke="currentColor" stroke-width="2" stroke-linecap="round" stroke-linejoin="round">
      <path d="M6 13.87A4 4 0 0 1 7.41 6a5.11 5.11 0 0 1 1.05-1.54 5 5 0 0 1 7.08 0A5.11 5.11 0 0 1 16.59 6 4 4 0 0 1 18 13.87V21H6Z"></path>
      <line x1="6" y1="17" x2="18" y2="17"></line>
    </symbol>

    <!-- Activity / Trending Up -->
    <symbol id="icon-activity" viewBox="0 0 24 24" fill="none" stroke="currentColor" stroke-width="2" stroke-linecap="round" stroke-linejoin="round">
      <polyline points="22 12 18 12 15 21 9 3 6 12 2 12"></polyline>
    </symbol>

    <!-- Codolio -->
    <symbol id="icon-codolio" viewBox="0 0 24 24" fill="none" stroke="currentColor" stroke-width="2" stroke-linecap="round" stroke-linejoin="round">
      <circle cx="12" cy="12" r="9"></circle>
      <path d="M15 9l-4 3 4 3"></path>
      <circle cx="12" cy="12" r="1.5" fill="currentColor"></circle>
      <path d="M9 12h2"></path>
    </symbol>

    <!-- GeeksforGeeks -->
    <symbol id="icon-geeksforgeeks" viewBox="0 0 24 24" fill="none" stroke="currentColor" stroke-width="2" stroke-linecap="round" stroke-linejoin="round">
      <path d="M7 4c-1.6 0-3 1.3-3 3v2c0 1.5-1 2.5-2 3 1 .5 2 1.5 2 3v2c0 1.7 1.4 3 3 3"></path>
      <path d="M17 4c1.6 0 3 1.3 3 3v2c0 1.5 1 2.5 2 3-1 .5-2 1.5-2 3v2c0 1.7-1.4 3-3 3"></path>
      <circle cx="12" cy="12" r="2.5" fill="currentColor"></circle>
    </symbol>
    <symbol id="icon-gfg" viewBox="0 0 24 24" fill="none" stroke="currentColor" stroke-width="2" stroke-linecap="round" stroke-linejoin="round">
      <path d="M7 4c-1.6 0-3 1.3-3 3v2c0 1.5-1 2.5-2 3 1 .5 2 1.5 2 3v2c0 1.7 1.4 3 3 3"></path>
      <path d="M17 4c1.6 0 3 1.3 3 3v2c0 1.5 1 2.5 2 3-1 .5-2 1.5-2 3v2c0 1.7-1.4 3-3 3"></path>
      <circle cx="12" cy="12" r="2.5" fill="currentColor"></circle>
    </symbol>
  </defs>
</svg>
